<mxfile host="app.diagrams.net" agent="Mozilla/5.0 (Windows NT 10.0; Win64; x64) AppleWebKit/537.36 (KHTML, like Gecko) Chrome/136.0.0.0 Safari/537.36" version="26.1.1">
  <diagram id="C5RBs43oDa-KdzZeNtuy" name="Page-1">
    <mxGraphModel dx="1050" dy="522" grid="1" gridSize="10" guides="1" tooltips="1" connect="1" arrows="1" fold="1" page="1" pageScale="1" pageWidth="827" pageHeight="1169" background="none" math="0" shadow="0">
      <root>
        <mxCell id="WIyWlLk6GJQsqaUBKTNV-0" />
        <mxCell id="WIyWlLk6GJQsqaUBKTNV-1" parent="WIyWlLk6GJQsqaUBKTNV-0" />
        <mxCell id="AHOfwArXX1mJ6PbQWnxd-17" value="bst" style="swimlane;fontStyle=1;align=center;verticalAlign=top;childLayout=stackLayout;horizontal=1;startSize=26;horizontalStack=0;resizeParent=1;resizeParentMax=0;resizeLast=0;collapsible=1;marginBottom=0;whiteSpace=wrap;html=1;fillColor=#d5e8d4;strokeColor=#82b366;" vertex="1" parent="WIyWlLk6GJQsqaUBKTNV-1">
          <mxGeometry x="400" y="110" width="160" height="328" as="geometry" />
        </mxCell>
        <mxCell id="AHOfwArXX1mJ6PbQWnxd-18" value="&lt;div&gt;- root: student*&lt;/div&gt;&lt;div&gt;- first, last: student*&lt;/div&gt;&lt;div&gt;- curr: student*&lt;/div&gt;&lt;div&gt;- stfirst, sttop: student*&lt;/div&gt;" style="text;strokeColor=#82b366;fillColor=#d5e8d4;align=left;verticalAlign=top;spacingLeft=4;spacingRight=4;overflow=hidden;rotatable=0;points=[[0,0.5],[1,0.5]];portConstraint=eastwest;whiteSpace=wrap;html=1;" vertex="1" parent="AHOfwArXX1mJ6PbQWnxd-17">
          <mxGeometry y="26" width="160" height="64" as="geometry" />
        </mxCell>
        <mxCell id="AHOfwArXX1mJ6PbQWnxd-19" value="" style="line;strokeWidth=1;fillColor=none;align=left;verticalAlign=middle;spacingTop=-1;spacingLeft=3;spacingRight=3;rotatable=0;labelPosition=right;points=[];portConstraint=eastwest;strokeColor=inherit;" vertex="1" parent="AHOfwArXX1mJ6PbQWnxd-17">
          <mxGeometry y="90" width="160" height="8" as="geometry" />
        </mxCell>
        <mxCell id="AHOfwArXX1mJ6PbQWnxd-20" value="&lt;div&gt;+ addStudent(): void&lt;/div&gt;&lt;div&gt;+ deleteStudent(): void&lt;/div&gt;&lt;div&gt;+ updateStudent(): void&lt;/div&gt;&lt;div&gt;+ searchStudent(int): student*&lt;/div&gt;&lt;div&gt;+ sreachByCgpa(): void&lt;/div&gt;&lt;div&gt;+ sortByRollNo(): void&lt;/div&gt;&lt;div&gt;+ sortByCgpa(): void&lt;/div&gt;&lt;div&gt;+ displayAll(): void&lt;/div&gt;&lt;div&gt;+ push(student*): void&lt;/div&gt;&lt;div&gt;+ pop(): student*&lt;/div&gt;&lt;div&gt;+ undo(): void&lt;/div&gt;&lt;div&gt;+ save_to_file(): void&lt;/div&gt;&lt;div&gt;+ readfile(): void&lt;/div&gt;&lt;div&gt;+ clearfile(): void&lt;/div&gt;" style="text;strokeColor=#82b366;fillColor=#d5e8d4;align=left;verticalAlign=top;spacingLeft=4;spacingRight=4;overflow=hidden;rotatable=0;points=[[0,0.5],[1,0.5]];portConstraint=eastwest;whiteSpace=wrap;html=1;" vertex="1" parent="AHOfwArXX1mJ6PbQWnxd-17">
          <mxGeometry y="98" width="160" height="230" as="geometry" />
        </mxCell>
        <mxCell id="AHOfwArXX1mJ6PbQWnxd-21" value="Student" style="swimlane;fontStyle=1;align=center;verticalAlign=top;childLayout=stackLayout;horizontal=1;startSize=26;horizontalStack=0;resizeParent=1;resizeParentMax=0;resizeLast=0;collapsible=1;marginBottom=0;whiteSpace=wrap;html=1;fillColor=#dae8fc;strokeColor=#6c8ebf;" vertex="1" parent="WIyWlLk6GJQsqaUBKTNV-1">
          <mxGeometry x="130" y="110" width="160" height="228" as="geometry" />
        </mxCell>
        <mxCell id="AHOfwArXX1mJ6PbQWnxd-22" value="- roll_no: int&#xa;- name: char[50]&#xa;- cgpa: float&#xa;- department: char[30]&#xa;- gender: char[10]&#xa;- contact_no: string&#xa;- semester: int&#xa;- email: char[50]&#xa;- left, right: student*&#xa;- prev, next: student*" style="text;strokeColor=#6c8ebf;fillColor=#dae8fc;align=left;verticalAlign=top;spacingLeft=4;spacingRight=4;overflow=hidden;rotatable=0;points=[[0,0.5],[1,0.5]];portConstraint=eastwest;whiteSpace=wrap;html=1;" vertex="1" parent="AHOfwArXX1mJ6PbQWnxd-21">
          <mxGeometry y="26" width="160" height="154" as="geometry" />
        </mxCell>
        <mxCell id="AHOfwArXX1mJ6PbQWnxd-23" value="" style="line;strokeWidth=1;fillColor=none;align=left;verticalAlign=middle;spacingTop=-1;spacingLeft=3;spacingRight=3;rotatable=0;labelPosition=right;points=[];portConstraint=eastwest;strokeColor=inherit;" vertex="1" parent="AHOfwArXX1mJ6PbQWnxd-21">
          <mxGeometry y="180" width="160" height="8" as="geometry" />
        </mxCell>
        <mxCell id="AHOfwArXX1mJ6PbQWnxd-24" value="&lt;div&gt;+ setter(): void&lt;/div&gt;&lt;div&gt;+ getter(): void&lt;/div&gt;" style="text;strokeColor=#6c8ebf;fillColor=#dae8fc;align=left;verticalAlign=top;spacingLeft=4;spacingRight=4;overflow=hidden;rotatable=0;points=[[0,0.5],[1,0.5]];portConstraint=eastwest;whiteSpace=wrap;html=1;" vertex="1" parent="AHOfwArXX1mJ6PbQWnxd-21">
          <mxGeometry y="188" width="160" height="40" as="geometry" />
        </mxCell>
        <mxCell id="AHOfwArXX1mJ6PbQWnxd-25" value="" style="endArrow=open;endFill=1;endSize=12;html=1;rounded=0;exitX=-0.003;exitY=0.103;exitDx=0;exitDy=0;exitPerimeter=0;entryX=0.985;entryY=0.616;entryDx=0;entryDy=0;entryPerimeter=0;" edge="1" parent="WIyWlLk6GJQsqaUBKTNV-1" source="AHOfwArXX1mJ6PbQWnxd-20" target="AHOfwArXX1mJ6PbQWnxd-22">
          <mxGeometry width="160" relative="1" as="geometry">
            <mxPoint x="270" y="240" as="sourcePoint" />
            <mxPoint x="430" y="240" as="targetPoint" />
          </mxGeometry>
        </mxCell>
        <mxCell id="AHOfwArXX1mJ6PbQWnxd-26" value="&lt;b&gt;&lt;i&gt;Uses&lt;/i&gt;&lt;/b&gt;" style="text;html=1;align=center;verticalAlign=middle;resizable=0;points=[];autosize=1;strokeColor=none;fillColor=none;" vertex="1" parent="WIyWlLk6GJQsqaUBKTNV-1">
          <mxGeometry x="320" y="209" width="50" height="30" as="geometry" />
        </mxCell>
        <mxCell id="AHOfwArXX1mJ6PbQWnxd-27" value="&lt;div&gt;- student is used in BST, DLL, and Stack&lt;/div&gt;&lt;div&gt;- bst performs all logic and persistence&lt;/div&gt;&lt;div&gt;- File I/O is embedded in bst class&lt;/div&gt;" style="shape=note;whiteSpace=wrap;html=1;backgroundOutline=1;darkOpacity=0.05;" vertex="1" parent="WIyWlLk6GJQsqaUBKTNV-1">
          <mxGeometry x="160" y="350" width="210" height="110" as="geometry" />
        </mxCell>
      </root>
    </mxGraphModel>
  </diagram>
</mxfile>
